<?xml version="1.0" encoding="utf-8"?>
<!-- Generator: Adobe Illustrator 23.0.4, SVG Export Plug-In . SVG Version: 6.00 Build 0)  -->
<svg version="1.1" id="Capa_1" xmlns="http://www.w3.org/2000/svg" xmlns:xlink="http://www.w3.org/1999/xlink" x="0px" y="0px"
	 viewBox="0 0 512 512" style="enable-background:new 0 0 512 512;" xml:space="preserve">
<style type="text/css">
	.st0{fill:#1E5F74;}
	.st1{fill:#FFFFFF;}
</style>
<path class="st0" d="M410.8,512H101.2C45.6,512,0,466.4,0,410.8V101.2C0,45.6,45.6,0,101.2,0h309.5C466.4,0,512,45.6,512,101.2
	v309.5C512,466.4,466.4,512,410.8,512z"/>
<g>
	<g>
		<g>
			<path class="st1" d="M372.4,266.2c-2.9,0-5.2,2.3-5.2,5.2c0,3.6-3,6.6-6.6,6.6c-3.6,0-6.6-3-6.6-6.6c0-2.9-2.3-5.2-5.2-5.2
				c-2.9,0-5.2,2.3-5.2,5.2c0,9.4,7.6,17,17,17s17-7.6,17-17C377.6,268.5,375.3,266.2,372.4,266.2z"/>
		</g>
	</g>
	<g>
		<g>
			<path class="st1" d="M421.3,267.1l-14.7-4.7c-1.9-0.6-3.4-2.1-4-4c-3.1-9.8-7.8-19.1-13.9-27.4c-2.8-3.8-5.9-7.5-9.3-10.9
				c2.2-9.5,3.3-20.2,3.2-29.5c-0.2-13.3-2.9-21.1-8.1-23.8c-2.8-1.5-11.4-6-57.9,15.3c-1.1,0.5-2.1,1.1-3.1,1.8
				c-3.1-0.8-6.3-1.6-9.6-2.3c-0.4-0.1-0.8-0.2-1.2-0.2c3.8-8.2,6-17.2,6.4-26.4c0.1-2.9-2.1-5.3-5-5.4c-2.9-0.1-5.3,2.1-5.4,5
				c-0.7,15.2-7,29.4-17.7,40.2c-6.4,6.4-13.9,11.1-21.9,14c-13.9-1.9-28-1.9-41.9,0c-8-2.9-15.5-7.6-21.9-14
				c-11.5-11.5-17.8-26.7-17.8-42.9c0-16.2,6.3-31.5,17.8-42.9C206.8,97.3,222.1,91,238.3,91s31.5,6.3,42.9,17.8
				c4.6,4.6,8.4,9.9,11.3,15.6c1.3,2.6,4.4,3.6,7,2.3c2.6-1.3,3.6-4.4,2.3-7c-3.4-6.8-7.9-12.9-13.3-18.3
				c-13.4-13.4-31.3-20.8-50.3-20.8S201.4,88,188,101.4c-13.4,13.4-20.8,31.3-20.8,50.3s7.4,36.9,20.8,50.3c3.9,3.9,8.1,7.2,12.5,10
				c0,0,0,0,0,0c-3.2,0.8-6.5,1.8-9.6,2.9c-2.7,0.9-4.2,3.9-3.3,6.6c0.9,2.7,3.9,4.2,6.6,3.3c28.4-9.5,59.7-9.5,88.1,0
				c0.5,0.2,1.1,0.3,1.7,0.3c2.2,0,4.2-1.4,4.9-3.6c0.9-2.7-0.6-5.7-3.3-6.6c-3.2-1.1-6.4-2-9.6-2.9c0,0,0,0,0,0
				c4.5-2.8,8.7-6.1,12.5-10c3.4-3.4,6.5-7.2,9.1-11.1c1.4,0.3,2.9,0.6,4.3,0.9c1.9,0.4,3.7,0.8,5.6,1.3c-0.1,0.2-0.1,0.5-0.2,0.7
				c-2.5,12.1-2.4,22.7,0.5,31.7c2.6,8.1,7.2,14.6,13.8,19.4c7.8,5.7,17.1,8.1,25.6,8.1c6.4,0,12.3-1.4,16.6-3.8
				c4.9-2.8,9-8.6,12.2-17.4c1.5,1.8,2.9,3.5,4.3,5.4c5.4,7.4,9.6,15.7,12.3,24.4c1.6,5.1,5.6,9.2,10.7,10.8l14.7,4.7
				c3.8,1.2,6.4,4.8,6.4,8.8v24.3c0,4-2.6,7.6-6.4,8.8l-23.6,7.6c-3.8,1.2-7,3.8-9,7.3c-9.3,16-23.9,29.3-43.4,39.5
				c-2.3,1.2-3.8,3.3-4.3,5.8l-7.6,40.1c-0.2,1.1-1.2,1.9-2.3,1.9h-24.6c-1.1,0-2.1-0.8-2.3-1.9l-4.2-22.1c-0.8-4.4-4.9-7.3-9.3-6.6
				c-10.6,1.6-21.5,2.4-32.5,2.4c-8.1,0-16.2-0.5-23.9-1.3c-4.3-0.5-8.2,2.4-9,6.6l-4,21c-0.2,1.1-1.2,1.9-2.3,1.9h-24.6
				c-1.1,0-2.1-0.8-2.3-1.9l-7.3-37.8c-0.5-2.4-2-4.5-4.2-5.7c-33.2-17.7-50.8-47.4-50.8-85.7c0-19.4,4.2-36.5,12.6-50.9
				c7.8-13.5,19.2-24.6,33.9-33.1c2.5-1.4,3.3-4.6,1.9-7.1c-1.4-2.5-4.6-3.3-7.1-1.9c-28.4,16.5-45.6,41.8-50.3,74.1v0
				c-0.5,0-1-0.1-1.5-0.1c0.1-3.5-0.5-7-1.9-10.4c-3-7.5-9.2-12.9-15.8-13.8c-5.2-0.7-10.1,1.5-13.6,6c-5,6.6-4.2,11.8-2.6,15
				c2.6,5.4,9.4,9.2,20.6,11.6c-0.3,0.5-0.6,0.9-1,1.4c-6.6,8.3-14.4,10.1-19.5,10.3c-3,0.1-5.3,2.5-5.3,5.4v0
				c0,2.9,2.3,5.3,5.2,5.4c0.4,0,0.8,0,1.2,0c6.4,0,16.7-2.4,26.5-14.7c1.6-2,2.8-4,3.8-6.1c1,0.1,1.9,0.2,2.8,0.3c0,0,0,0,0,0
				c-0.2,2.8-0.3,5.7-0.3,8.6c0,21.7,5.2,41,15.4,57.5c9.4,15.2,22.9,27.6,40,36.9l7.1,36.8c1.1,6,6.4,10.4,12.5,10.4h24.6
				c6.1,0,11.4-4.4,12.5-10.4l3.6-19c7.5,0.8,15.2,1.2,23,1.2c10.7,0,21.5-0.7,31.9-2.2l3.8,20.1c1.1,6,6.4,10.4,12.5,10.4H328
				c6.1,0,11.4-4.4,12.5-10.4l7.4-39c20.8-11,36.5-25.5,46.6-43c0.7-1.3,1.9-2.2,3.2-2.6l23.6-7.6c8.2-2.6,13.7-10.2,13.7-18.7
				v-24.3C435,277.2,429.5,269.7,421.3,267.1z M371.6,205.1c-2,17.1-7.4,31.8-12.8,34.9c-6.1,3.5-20.3,4.2-31-3.6
				c-10.7-7.8-14.2-21.8-10.3-40.6c0,0,0,0,0,0c0.4-1.9,1.7-3.5,3.6-4.4c26.1-11.9,41.1-15.8,46.7-15.8c0.8,0,1.5,0.1,1.9,0.3
				C371.4,177.7,373.6,187.8,371.6,205.1z M91.6,263c-0.5-1.1,0.7-3.1,1.5-4.1c1.3-1.7,2.5-2,3.3-2c0.2,0,0.4,0,0.5,0
				c2.4,0.3,5.8,3,7.5,7.4c0.4,1,1,2.8,1.1,4.9C98.4,267.7,92.8,265.5,91.6,263z"/>
		</g>
	</g>
	<g>
		<g>
			<path class="st1" d="M243.4,145.7v-18.6c6.4,0.5,8.8,3.4,11,3.4c2.8,0,4-3.5,4-5.2c0-4.5-8.8-6.4-15.1-6.6v-2.5
				c0-1.1-1.4-2.1-2.8-2.1c-1.6,0-2.7,1-2.7,2.1v2.7c-8.7,0.9-17.5,5.5-17.5,17.1c0,11.8,9.2,15.1,17.5,18v21.6
				c-9.4-0.7-11.8-7.2-14.9-7.2c-2.3,0-4.2,3-4.2,5.2c0,4.5,7.7,10.7,19.1,10.8l0,0v2.8c0,1.1,1.1,2.1,2.7,2.1c1.4,0,2.8-1,2.8-2.1
				v-3.1c9.9-1.4,16.7-7.6,16.7-18.9C260.1,152.7,251.3,148.7,243.4,145.7z M238.5,144c-4.9-1.8-8.8-3.8-8.8-9
				c0-4.8,3.7-7.1,8.8-7.7V144z M242.8,175.3v-19.4c4.5,1.9,8.1,4.5,8.1,10.3C250.9,171.4,247.8,174.4,242.8,175.3z"/>
		</g>
	</g>
</g>
</svg>
